<?xml version="1.0" standalone="no"?>
<!DOCTYPE svg PUBLIC "-//W3C//DTD SVG 20010904//EN"
 "http://www.w3.org/TR/2001/REC-SVG-20010904/DTD/svg10.dtd">
<svg version="1.0" xmlns="http://www.w3.org/2000/svg"
 width="64.000000pt" height="64.000000pt" viewBox="0 0 64.000000 64.000000"
 preserveAspectRatio="xMidYMid meet">

<g transform="translate(0.000000,64.000000) scale(0.100000,-0.100000)"
fill="#000000" stroke="none">
<path d="M332 578 c-23 -23 -12 -43 70 -125 l83 -83 -220 0 c-183 0 -224 -3
-243 -16 -28 -19 -28 -49 0 -68 19 -13 60 -16 243 -16 l220 0 -83 -83 c-45
-45 -82 -89 -82 -98 0 -21 20 -39 45 -39 24 0 275 247 275 270 0 9 -57 73
-128 143 -125 125 -153 142 -180 115z"/>
</g>
</svg>
