<svg class="back" width="43" height="43" viewBox="0 0 43 43" fill="none" xmlns="http://www.w3.org/2000/svg">
<path class="fill" d="M14.859 1.65152C7.63896 4.23512 3.06847 9.07108 0.948817 16.2919C-0.972115 23.049 1.21377 31.396 6.38042 36.5632C14.4616 44.5789 28.1068 44.5789 36.188 36.5632C42.2157 30.4685 44.0042 20.5979 40.4273 12.9796C35.8568 3.30767 24.4637 -1.79327 14.859 1.65152ZM27.2457 7.14994C31.2201 8.93859 33.7371 11.3897 35.5918 15.3644C39.3012 23.1815 35.8568 32.0584 27.5769 35.967C23.2714 38.0206 19.297 38.0206 14.9915 35.967C2.33984 30.0048 2.33984 13.3108 14.9915 7.34868C19.0983 5.42755 23.2714 5.3613 27.2457 7.14994Z" fill="black"/>
<path class="fill" d="M15.4552 8.80609C9.89108 11.6547 7.10904 16.4906 7.50647 22.5853C7.77143 27.2887 9.7586 30.7335 13.7992 33.4496C15.9851 34.9733 16.9787 35.2383 21.2842 35.2383C25.5897 35.2383 26.5833 34.9733 28.7692 33.4496C30.2265 32.5222 32.1474 30.601 33.0747 29.1436C34.5982 26.9575 34.8632 25.9638 34.8632 21.6578C34.8632 17.3518 34.5982 16.3581 33.0747 14.172C30.2265 9.99852 26.9808 8.14363 21.9466 7.87865C18.8996 7.74616 16.9787 8.01114 15.4552 8.80609ZM25.4573 10.1973C25.5897 10.5285 25.4573 11.7209 25.1261 12.9133C23.9338 17.2856 18.6346 17.2856 17.4423 12.9133C17.1111 11.7209 16.9787 10.5285 17.1111 10.1973C17.2436 9.93228 19.1645 9.73354 21.2842 9.73354C23.4038 9.73354 25.3248 9.93228 25.4573 10.1973ZM15.3227 14.702C16.9787 17.4181 16.6475 19.4717 14.1966 20.3991C12.1432 21.1941 9.36117 20.4654 9.36117 19.1405C9.36117 17.8156 12.5406 12.3834 13.3355 12.3834C13.6005 12.3834 14.5278 13.4433 15.3227 14.702ZM31.5512 15.232C33.6047 18.8755 33.6709 20.0679 31.6175 20.5979C29.4316 21.1279 26.782 20.0679 26.2521 18.3455C25.7884 16.9544 28.1068 12.3834 29.2329 12.3834C29.5641 12.3834 30.6239 13.7083 31.5512 15.232ZM23.8013 19.1405C24.2649 19.6042 24.5961 20.7304 24.5961 21.6578C24.5961 22.5853 24.2649 23.7114 23.8013 24.1752C22.8077 25.1689 19.7607 25.1689 18.7671 24.1752C17.7735 23.1815 17.7735 20.1342 18.7671 19.1405C19.2308 18.6768 20.3568 18.3455 21.2842 18.3455C22.2115 18.3455 23.3376 18.6768 23.8013 19.1405ZM31.75 22.7178C32.5448 22.9827 33.2072 23.579 33.2072 24.1752C33.2072 25.5001 30.0277 30.9323 29.2329 30.9323C28.9679 30.9323 28.0406 29.8723 27.2457 28.6137C25.5897 25.9638 25.9209 23.8439 28.1068 22.9827C29.9615 22.254 29.8953 22.254 31.75 22.7178ZM15.9851 24.3739C16.8462 25.8976 15.9188 28.9449 14.1966 30.4023C13.4017 31.0648 13.0043 30.9323 11.9445 29.6073C10.2223 27.4212 9.22869 24.9701 9.62612 23.8439C9.82484 23.314 11.0171 22.9827 12.6069 22.9827C14.6603 22.9827 15.4552 23.314 15.9851 24.3739ZM23.735 28.4149C24.5299 29.2761 25.2585 30.6673 25.391 31.5285C25.5235 32.9196 25.2585 33.2509 23.4038 33.6484C22.2778 33.8471 20.2906 33.8471 19.0983 33.6484C17.3099 33.2509 17.0449 32.9196 17.1774 31.5285C17.5086 29.5411 19.8269 26.9575 21.2842 26.9575C21.8803 26.9575 23.0064 27.62 23.735 28.4149Z" fill="black"/>
</svg>
